<svg id="Layer_1" xmlns="http://www.w3.org/2000/svg" viewBox="0 0 80 79"><style>.st0{fill:none;stroke:#e71b4f;stroke-width:2;stroke-linecap:round;stroke-linejoin:round}</style><path class="st0" d="M6.5 77.8h66.4V51.9H6.5v25.9z"/><path class="st0" d="M19.2 77.8h41.1v-8.7H19.2v8.7zm0-21.5h41.1v-4.4H19.2v4.4zm38.8 0v12.8-12.8zm-14.6 0v12.8-12.8zm-7.4 0v12.8-12.8zm-14.7 0v12.8-12.8zm7.4 0v12.8-12.8zm22 0v12.8-12.8zM19.2 74.1H6.5h12.7zm53.7-2H60.2h12.7zm0 5.7h5.2V56.3h-5.2v21.5zm0-17.9h5.2-5.2zm-53.7-8h41.1V37.7H19.2v14.2zm2.7-14.2h35.5v-9.9H21.9v9.9zm17.8-27.2c-8.3 0-15.1 7.8-15.1 17.3h30.1c.1-9.6-6.7-17.3-15-17.3zm0 0V1.1v9.4zM1.3 77.8h5.2V56.3H1.3v21.5zm0-17.9z"/></svg>