<svg id="Layer_1" xmlns="http://www.w3.org/2000/svg" viewBox="0 0 76 76"><style>.st0{fill:none;stroke:#e71b4f;stroke-width:2;stroke-linecap:round;stroke-linejoin:round}</style><path class="st0" d="M74.8 47.1C45.4 35.5 30.7 62.8 1.3 51.3V8.5C30.7 20.1 45.4-7.2 74.8 4.4v42.7z"/><path class="st0" d="M1.3 43.1s12.3 6.2 36.8-2.1c24.5-8.3 36.8-2.1 36.8-2.1M1.3 34.3s12.3 6.2 36.8-2.1c24.5-8.3 36.8-2.1 36.8-2.1m-46.3-4c3.2-.7 6.4-1.6 9.5-2.7 24.5-8.3 36.8-2.1 36.8-2.1m-46.3-4.1c3.2-.7 6.4-1.6 9.5-2.7 24.5-8.3 36.8-2.1 36.8-2.1M28.6 9.6v25.2m-22.1-19v.3m8.6 1v.4m8.6-1.7v.3M6.5 29.5v.4m8.6.8v.4m8.6-1.6v.4M6.5 22.6v.4m4.3-3v.4m8.6-.4v.4m-8.6 6.8v.4m8.6-.4v.4m-4.3-3.7v.4m8.6-1.7v.4M1.3 74.8V1.4"/></svg>