<svg id="Layer_1" xmlns="http://www.w3.org/2000/svg" viewBox="0 0 80 80" enable-background="new 0 0 80 80"><style>.st0{fill:none;stroke:#e71b4f;stroke-width:2;stroke-linecap:round;stroke-linejoin:round}.st1{filter:url(#Adobe_OpacityMaskFilter)}.st2{fill-rule:evenodd;clip-rule:evenodd;fill:#fff}.st3{mask:url(#b_1_);fill:none;stroke:#e71b4f;stroke-width:2;stroke-linecap:round;stroke-linejoin:round}</style><path class="st0" d="M51.6 37.9l-.3 4.4h-8l-.3-4.4H16.7V78H78V37.9H51.6z"/><path class="st0" d="M22.9 63h15.8V44.1H22.9V63zm0 8.8h15.8v-4.4H22.9v4.4zm22 0h27v-4.4h-27v4.4zm0-23.6zm0 6.4zm0 6.4z"/><path class="st0" d="M32.8 56.2c1.2-.7 1.9-2 1.9-3.4 0-2.2-1.7-3.9-3.9-3.9s-3.9 1.8-3.9 3.9c0 1.4.8 2.7 1.9 3.4-2.5 1-4.2 3.6-4.2 6.8H37c0-3.2-1.8-5.8-4.2-6.8zm14.6-22.3c-1.3 0-2.4-1.1-2.4-2.4 0-1.3 1.1-2.4 2.4-2.4 1.3 0 2.4 1.1 2.4 2.4 0 1.3-1.1 2.4-2.4 2.4zm1.8-7h-6.6l.6 10.9.3 4.4h8l.3-4.4.6-10.9h-3.2z"/><path class="st0" d="M16.7 37.9v10.5H8.4c-3.9 0-7.1-3.2-7.1-7.1V16.4c0-3.9 3.2-7.1 7.1-7.1h40.4c3.9 0 7.1 3.2 7.1 7.1v21.4h-4.2l-.2 4.4h-8l-.3-4.4-26.5.1z"/><path class="st0" d="M20.4 9.3s0-8.2 8.2-8.2 8.2 8.2 8.2 8.2m11 0v17.6M9.4 9.3v39"/><g transform="translate(0 -.83)"><defs><filter id="Adobe_OpacityMaskFilter" filterUnits="userSpaceOnUse" x="21.4" y="15.8" width="14.4" height="5.5"><feColorMatrix values="1 0 0 0 0 0 1 0 0 0 0 0 1 0 0 0 0 0 1 0"/></filter></defs><mask maskUnits="userSpaceOnUse" x="21.4" y="15.8" width="14.4" height="5.5" id="b_1_"><g class="st1"><path id="a_1_" class="st2" d="M0 80.2h79.4V.6H0v79.6z"/></g></mask><path class="st3" d="M22.4 20.2h12.4v-3.5H22.4v3.5z"/></g></svg>