<svg id="Layer_1" xmlns="http://www.w3.org/2000/svg" viewBox="0 0 72 72" enable-background="new 0 0 72 72"><style>.st0{fill:none;stroke:#e71b4f;stroke-width:2;stroke-linecap:round;stroke-linejoin:round}.st1{filter:url(#Adobe_OpacityMaskFilter)}.st2{fill-rule:evenodd;clip-rule:evenodd;fill:#fff}.st3{mask:url(#b_1_);fill:none;stroke:#e71b4f;stroke-width:1.5;stroke-linecap:round;stroke-linejoin:round}.st4{filter:url(#Adobe_OpacityMaskFilter_1_)}.st5{mask:url(#d_1_);fill:none;stroke:#e71b4f;stroke-width:2;stroke-linecap:round;stroke-linejoin:round}</style><path class="st0" d="M61.6 23.9c0 2.4-1.9 4.3-4.3 4.3S53 26.3 53 23.9c0 2.4-1.9 4.3-4.3 4.3s-4.3-1.9-4.3-4.3c0 2.4-1.9 4.3-4.3 4.3s-4.3-1.9-4.3-4.3c0 2.4-1.9 4.3-4.3 4.3s-4.3-1.9-4.3-4.3c0 2.4-2 4.3-4.4 4.2-2.3 0-4.2-1.9-4.2-4.2 0 2.4-1.9 4.3-4.3 4.3S10 26.3 10 23.9c0 2.4-1.9 4.3-4.3 4.3-.7 0-1.4-.2-2-.5v42.6h64.4V27.7c-.6.3-1.3.5-2 .5-2.6 0-4.5-1.9-4.5-4.3z"/><g transform="translate(0 69.85)"><defs><filter id="Adobe_OpacityMaskFilter" filterUnits="userSpaceOnUse" x=".5" y="-.4" width="70.6" height="1.5"><feColorMatrix values="1 0 0 0 0 0 1 0 0 0 0 0 1 0 0 0 0 0 1 0"/></filter></defs><mask maskUnits="userSpaceOnUse" x=".5" y="-.4" width="70.6" height="1.5" id="b_1_"><g class="st1"><path id="a_1_" class="st2" d="M1.2.4h69.1v1.2H1.2V.4z"/></g></mask><path class="st3" d="M1.2.4h69.1"/></g><path class="st0" d="M18.5 1.2v22.7c0 2.4 1.9 4.3 4.3 4.3s4.3-1.9 4.3-4.3V1.2h-8.6zm-8.7 0v22.7c0 2.4 1.9 4.3 4.3 4.3s4.3-1.9 4.3-4.3V1.2H9.8zm17.3 0v22.7c0 2.4 1.9 4.3 4.3 4.3s4.3-1.9 4.3-4.3V1.2h-8.6z"/><path class="st0" d="M1.2 1.2v22.7c0 1.7.9 3.1 2.3 3.8.6.3 1.3.5 2 .5 2.4 0 4.3-1.9 4.3-4.3V1.2H1.2zm34.5 0v22.7c0 2.4 1.9 4.3 4.3 4.3s4.3-1.9 4.3-4.3V1.2h-8.6zm25.9 0v22.7c0 2.4 1.9 4.3 4.3 4.3.7 0 1.4-.2 2-.5 1.4-.7 2.3-2.2 2.3-3.8V1.2h-8.6zm-17.2 0v22.7c0 2.4 1.9 4.3 4.3 4.3s4.3-1.9 4.3-4.3V1.2h-8.6zm8.6 0v22.7c0 2.4 1.9 4.3 4.3 4.3s4.3-1.9 4.3-4.3V1.2H53z"/><defs><filter id="Adobe_OpacityMaskFilter_1_" filterUnits="userSpaceOnUse" x="9.4" y="35.1" width="53.2" height="36.1"><feColorMatrix values="1 0 0 0 0 0 1 0 0 0 0 0 1 0 0 0 0 0 1 0"/></filter></defs><mask maskUnits="userSpaceOnUse" x="9.4" y="35.1" width="53.2" height="36.1" id="d_1_"><g class="st4"><path id="c_1_" class="st2" d="M0 71.4h71.4V0H0v71.4z"/></g></mask><path class="st5" d="M10.4 70.2h15v-30h-15v30zm21.5-13.6h29.8V36.1H31.9v20.5zm14.8-20.5v20.4-20.4zM22.3 54.2v2-2z"/></svg>